<?xml version="1.0" standalone="no"?>
<!DOCTYPE svg PUBLIC "-//W3C//DTD SVG 20010904//EN"
 "http://www.w3.org/TR/2001/REC-SVG-20010904/DTD/svg10.dtd">
<svg version="1.0" xmlns="http://www.w3.org/2000/svg"
 width="704.000000pt" height="704.000000pt" viewBox="0 0 704.000000 704.000000"
 preserveAspectRatio="xMidYMid meet">
<metadata>
Created by potrace 1.11, written by Peter Selinger 2001-2013
</metadata>
<g transform="translate(0.000000,704.000000) scale(0.100000,-0.100000)"
fill="#000000" stroke="none">
<path d="M3496 7003 c-3 -21 -8 -60 -11 -88 -3 -27 -14 -131 -25 -230 -11 -99
-28 -245 -36 -325 -8 -80 -18 -167 -22 -195 l-7 -50 -129 -12 c-71 -7 -188
-24 -259 -38 -71 -14 -131 -24 -132 -23 -1 2 -23 69 -49 151 -32 100 -52 147
-61 147 -8 0 -15 -2 -15 -4 0 -7 39 -190 53 -252 l14 -61 -141 -47 c-77 -26
-206 -79 -285 -117 -79 -38 -145 -69 -146 -69 -1 0 -40 58 -86 130 -46 71 -90
130 -97 130 -19 0 -10 -24 64 -171 l63 -127 -60 -37 c-84 -52 -240 -169 -331
-249 l-77 -68 -248 223 c-136 123 -272 245 -301 271 -56 50 -72 58 -72 33 0
-8 121 -149 268 -312 l269 -298 -82 -95 c-89 -104 -169 -210 -231 -307 -21
-35 -42 -63 -47 -63 -4 0 -63 29 -131 65 -130 68 -146 74 -146 50 0 -13 29
-34 198 -142 l52 -34 -34 -62 c-47 -86 -117 -251 -162 -382 -20 -60 -40 -113
-43 -117 -3 -4 -69 6 -145 23 -158 33 -166 34 -166 16 0 -7 62 -32 151 -60
120 -38 150 -51 145 -63 -14 -36 -47 -219 -56 -315 -20 -192 -19 -189 -43
-193 -12 -3 -96 -12 -187 -21 -91 -9 -219 -23 -285 -30 -184 -22 -396 -45
-412 -45 -9 0 -13 -8 -11 -22 3 -22 11 -24 148 -39 80 -9 284 -31 454 -50 350
-38 326 -28 326 -132 0 -55 42 -326 60 -386 5 -19 9 -36 7 -37 -1 -1 -68 -23
-150 -50 -100 -32 -147 -52 -147 -62 0 -11 8 -13 33 -8 17 4 43 10 57 12 14 3
64 14 112 25 106 23 118 23 118 4 0 -42 106 -308 191 -476 l38 -76 -130 -83
c-115 -75 -153 -111 -116 -110 6 1 72 31 145 69 l133 68 65 -100 c68 -104 134
-190 228 -298 31 -35 55 -69 54 -75 -2 -7 -128 -149 -280 -318 -153 -168 -278
-311 -278 -317 0 -6 6 -9 14 -7 8 2 152 127 320 278 168 151 310 276 314 278
4 1 30 -18 57 -43 74 -67 229 -185 328 -249 l87 -57 -75 -147 c-41 -81 -75
-151 -75 -155 0 -16 30 -5 41 16 27 50 162 247 170 247 5 0 64 -27 131 -59
163 -79 184 -87 318 -131 77 -25 114 -42 113 -51 -2 -8 -14 -68 -28 -134 -29
-137 -29 -145 -12 -145 8 0 31 55 57 136 l45 136 35 -6 c19 -3 82 -14 140 -25
58 -10 157 -24 220 -31 63 -6 118 -14 122 -18 3 -4 27 -196 52 -427 57 -515
52 -485 76 -485 11 0 20 1 20 3 0 1 23 204 50 451 28 247 50 453 50 457 0 4
33 10 73 14 127 11 300 36 358 51 98 24 90 31 139 -126 27 -88 48 -140 57
-140 18 0 17 21 -11 146 -39 172 -47 151 74 190 131 43 225 82 360 148 l105
52 75 -119 c41 -65 81 -121 88 -124 33 -14 25 12 -69 199 l-38 76 99 67 c114
75 231 166 307 238 29 27 58 47 65 44 7 -3 148 -128 313 -276 164 -149 305
-271 312 -271 31 0 39 -10 -361 435 -45 49 -105 115 -135 147 l-54 58 63 67
c65 69 200 247 259 340 18 29 37 53 42 53 5 0 63 -27 129 -60 128 -64 140 -68
140 -46 0 8 -54 49 -120 92 -67 42 -119 80 -118 83 2 3 28 58 59 121 73 148
99 212 140 335 17 55 33 102 35 104 2 2 69 -11 151 -28 170 -36 163 -35 163
-18 0 8 -60 32 -150 62 -117 38 -149 53 -145 65 14 48 45 230 55 320 6 58 13
123 16 146 l5 41 127 12 c70 7 276 29 457 49 314 35 330 38 333 58 3 19 -3 22
-60 28 -35 4 -81 9 -103 11 -251 29 -324 37 -410 46 -55 5 -154 16 -220 24
-66 8 -120 15 -122 15 -4 0 -11 59 -23 180 -6 63 -22 165 -35 225 -13 61 -21
113 -17 116 4 3 69 25 145 49 91 29 137 49 137 58 0 16 -12 15 -188 -24 -63
-14 -115 -24 -117 -22 -1 2 -10 30 -20 63 -33 107 -105 287 -160 397 l-53 108
36 25 c20 14 81 54 134 88 87 55 119 87 87 87 -5 0 -73 -32 -150 -71 -77 -40
-141 -70 -143 -68 -2 2 -31 47 -66 99 -68 103 -141 198 -231 300 l-57 65 269
299 c148 165 269 305 269 313 0 7 -5 13 -10 13 -6 0 -77 -60 -158 -133 -81
-73 -215 -194 -299 -270 l-152 -137 -127 106 c-70 59 -172 136 -228 172 -56
36 -105 68 -109 72 -5 4 21 64 57 133 36 69 66 132 66 141 0 39 -30 7 -104
-109 -44 -69 -81 -125 -82 -125 -1 0 -65 30 -141 67 -76 37 -204 89 -284 117
l-146 51 28 130 c32 150 34 165 16 165 -8 0 -30 -53 -57 -135 -24 -75 -46
-138 -50 -140 -3 -2 -60 7 -126 20 -65 13 -177 29 -249 36 -71 6 -133 15 -137
18 -4 3 -11 49 -17 101 -6 52 -20 176 -31 275 -11 99 -22 200 -25 225 -21 197
-35 302 -40 310 -14 22 -33 8 -39 -27z m4 -1667 l0 -1273 -52 -6 c-28 -4 -80
-16 -114 -27 l-64 -22 -31 23 c-26 18 -30 26 -25 53 3 17 15 117 26 221 21
205 67 615 75 680 2 22 9 83 15 135 16 155 70 643 74 675 2 17 23 207 47 423
23 215 44 392 46 392 2 0 3 -573 3 -1274z m-114 682 c-3 -13 -6 -37 -6 -54 l0
-31 -102 -12 c-330 -39 -580 -110 -838 -240 -572 -287 -1002 -778 -1206 -1374
-64 -187 -124 -478 -124 -603 0 -38 -2 -42 -31 -48 -74 -14 -79 -11 -79 47 0
57 20 197 45 322 98 484 366 965 730 1313 404 386 938 635 1480 691 137 14
138 14 131 -11z m395 11 c576 -59 1120 -323 1537 -746 391 -397 635 -897 706
-1448 22 -168 22 -185 -8 -185 -13 0 -37 3 -54 6 -30 6 -30 7 -37 88 -29 356
-160 747 -349 1048 -194 308 -493 605 -796 790 -304 186 -686 311 -1042 343
-63 5 -78 10 -78 23 0 10 -3 34 -6 55 -8 43 -17 41 127 26z m-417 -216 c-4
-43 -11 -89 -15 -101 -5 -13 -7 -27 -5 -30 2 -4 -10 -137 -28 -297 l-32 -290
-64 -12 c-40 -7 -71 -8 -82 -2 -27 14 -46 11 -70 -14 -13 -13 -52 -34 -88 -47
-36 -12 -98 -38 -138 -56 -40 -19 -88 -34 -108 -34 -30 0 -37 -5 -46 -28 -6
-16 -34 -42 -67 -64 -31 -20 -88 -63 -126 -96 l-70 -59 -90 73 c-87 72 -135
93 -135 59 0 -9 34 -58 76 -110 l75 -94 -68 -83 c-38 -46 -82 -105 -98 -131
-17 -26 -38 -47 -47 -47 -21 0 -42 -36 -33 -57 3 -9 -16 -66 -44 -127 -27 -61
-54 -130 -60 -153 -8 -28 -18 -44 -32 -48 -20 -7 -21 -12 -15 -60 7 -61 -10
-155 -28 -155 -6 0 -50 -5 -96 -10 -47 -6 -105 -12 -130 -15 -25 -3 -103 -12
-175 -20 -167 -19 -165 -19 -165 5 0 27 -28 25 -32 -2 -3 -24 -4 -24 -146 -41
l-44 -5 7 61 c59 550 265 1012 629 1411 217 239 572 483 866 596 83 32 256 88
295 95 11 3 41 10 67 16 87 20 263 47 316 48 l53 1 -7 -77z m511 58 c509 -81
965 -311 1325 -671 334 -333 568 -771 655 -1224 25 -131 46 -296 40 -306 -2
-4 -43 -1 -92 4 -80 10 -88 13 -91 34 -4 27 -32 30 -32 2 0 -11 -6 -20 -14
-20 -26 0 -561 62 -564 65 -12 12 -22 99 -17 147 6 51 5 57 -13 63 -14 4 -27
26 -43 72 -12 37 -38 101 -57 143 -19 41 -38 95 -41 120 -5 35 -11 45 -28 50
-13 3 -43 36 -73 79 -28 40 -71 98 -97 127 -32 38 -43 58 -36 67 5 6 40 50 76
95 37 46 67 90 67 98 0 36 -34 22 -123 -50 -52 -42 -97 -76 -100 -76 -4 0 -49
33 -101 74 -53 41 -108 82 -124 91 -16 10 -33 31 -40 47 -9 26 -15 29 -44 27
-18 -1 -55 8 -83 20 -130 60 -155 70 -192 80 -21 6 -49 22 -61 36 -22 25 -60
33 -78 16 -5 -5 -35 -5 -72 1 -51 9 -63 15 -67 32 -12 51 -64 557 -59 570 3 8
1 23 -4 33 -5 10 -13 53 -17 96 l-7 77 44 0 c23 0 97 -9 163 -19z m-599 -843
c-3 -13 -6 -38 -6 -56 0 -35 -19 -48 -76 -54 -25 -3 -28 1 -40 44 -14 56 -10
61 56 76 70 15 73 15 66 -10z m592 1 c25 -9 27 -26 11 -82 -7 -26 -15 -37 -24
-33 -7 2 -30 8 -49 12 -28 5 -36 11 -36 28 0 11 -3 38 -6 59 l-7 38 44 -7 c24
-4 54 -11 67 -15z m-756 -81 c13 -45 11 -48 -62 -72 -30 -10 -93 -36 -139 -57
-46 -22 -85 -39 -87 -39 -2 0 -15 18 -29 41 -18 28 -23 44 -16 52 12 15 144
78 231 110 74 27 84 24 102 -35z m937 27 c112 -39 211 -92 211 -113 0 -16 -35
-82 -43 -82 -3 0 -42 17 -88 39 -46 21 -110 47 -143 57 -32 10 -60 24 -63 30
-2 7 1 30 7 53 13 49 20 50 119 16z m-795 -139 c-6 -17 -52 -27 -61 -14 -7 13
16 28 44 28 15 0 21 -5 17 -14z m594 0 c2 -3 1 -9 -2 -14 -8 -14 -59 1 -64 18
-4 10 3 11 28 6 19 -3 35 -8 38 -10z m-1093 -42 l25 -41 -54 -36 c-29 -19 -79
-56 -110 -82 -37 -30 -63 -44 -74 -40 -18 6 -72 50 -72 59 0 17 236 189 252
184 5 -2 20 -22 33 -44z m1648 -4 c40 -27 95 -69 122 -94 l50 -44 -29 -23
c-17 -13 -36 -29 -44 -35 -12 -9 -31 2 -91 50 -42 34 -93 72 -114 85 -35 22
-37 25 -24 45 8 11 19 31 26 44 6 12 16 22 22 22 6 0 43 -22 82 -50z m-1253
21 c0 -4 -35 -21 -77 -36 -43 -15 -104 -40 -135 -56 -61 -31 -78 -35 -78 -19
0 15 122 72 240 113 24 9 50 8 50 -2z m827 -12 c108 -39 207 -89 196 -100 -7
-7 -23 -5 -49 9 -34 17 -84 37 -206 84 -30 11 -38 28 -13 28 8 0 40 -9 72 -21z
m-766 -362 c-21 -185 -40 -339 -42 -341 -2 -3 -115 84 -251 192 l-248 197 33
28 c97 84 286 187 422 230 71 23 116 35 122 32 1 0 -15 -152 -36 -338z m701
307 c100 -32 174 -66 278 -127 50 -29 170 -120 170 -128 0 -8 -484 -399 -494
-399 -3 0 -6 15 -6 33 0 26 -41 409 -65 610 -3 26 -3 47 0 47 3 0 56 -16 117
-36z m-1088 -73 c3 -4 -25 -29 -62 -54 -37 -26 -82 -59 -100 -73 -48 -39 -54
-18 -7 23 36 31 152 113 161 113 1 0 5 -4 8 -9z m1439 -13 c79 -54 157 -121
151 -129 -3 -5 -18 0 -32 11 -15 12 -59 44 -99 72 -40 28 -70 55 -67 60 8 12
13 10 47 -14z m-1827 -155 c15 -21 14 -25 -29 -75 -24 -29 -61 -78 -81 -108
-21 -30 -39 -57 -41 -59 -5 -4 -78 40 -86 52 -8 11 67 121 139 206 l45 53 19
-23 c10 -13 26 -34 34 -46z m2354 -100 c28 -39 50 -78 50 -86 0 -8 -19 -24
-42 -36 l-43 -21 -15 22 c-8 12 -42 58 -75 102 -33 43 -64 85 -69 91 -6 8 2
26 25 55 l34 42 43 -48 c23 -27 65 -81 92 -121z m-330 92 c0 -3 -129 -134
-287 -290 l-286 -284 -31 26 c-17 14 -31 30 -31 35 0 7 620 514 633 517 1 1 2
-1 2 -4z m-1374 -646 c-23 -34 -30 -39 -40 -28 -7 8 -131 163 -276 344 l-262
330 303 -302 302 -302 -27 -42z m-576 557 c0 -8 -16 -33 -35 -55 -19 -23 -49
-64 -66 -91 -31 -48 -49 -62 -49 -39 0 19 132 199 146 199 2 0 4 -6 4 -14z
m2114 -95 c31 -43 56 -83 56 -90 0 -22 -19 -10 -41 26 -13 21 -45 65 -71 99
-26 34 -44 65 -41 68 10 9 35 -18 97 -103z m-1872 -199 l196 -247 -141 -17
c-322 -38 -539 -59 -544 -54 -12 11 60 214 108 306 48 92 163 261 177 259 4 0
96 -111 204 -247z m1795 181 c95 -128 180 -297 214 -428 6 -22 13 -49 16 -59
6 -22 40 -24 -332 18 -121 14 -249 28 -285 32 -36 3 -66 7 -67 8 -4 3 392 496
398 496 3 0 28 -30 56 -67z m-2326 -55 c22 -12 38 -24 36 -27 -26 -48 -79
-173 -97 -226 -12 -39 -23 -71 -24 -72 -1 -1 -20 2 -42 8 -65 18 -68 25 -40
104 45 129 99 235 118 235 6 0 28 -10 49 -22z m2689 -35 c50 -94 100 -240 86
-257 -9 -12 -86 -40 -92 -33 -1 1 -15 38 -29 82 -15 44 -43 110 -62 148 -19
38 -33 70 -31 72 13 12 75 45 85 45 6 0 26 -26 43 -57z m-2562 -40 c-45 -92
-81 -175 -94 -218 -10 -30 -24 -55 -31 -55 -16 0 -17 -4 7 66 34 97 92 214
107 214 8 0 13 -3 11 -7z m2407 -75 c32 -69 75 -182 75 -195 0 -1 -6 -3 -14
-3 -8 0 -21 22 -30 51 -9 28 -35 89 -56 136 -46 98 -44 93 -26 93 7 0 30 -37
51 -82z m-1124 -114 c168 -49 283 -159 339 -324 18 -54 21 -80 18 -155 -4 -76
-10 -102 -41 -167 -143 -311 -535 -379 -765 -133 -93 99 -132 194 -132 321 0
258 210 469 471 473 30 1 80 -6 110 -15z m-1554 -95 l45 -12 -6 -41 c-4 -23
-10 -44 -14 -48 -4 -4 -31 -10 -61 -14 l-54 -7 8 49 c7 48 20 84 31 84 3 0 26
-5 51 -11z m2939 3 c13 -8 34 -75 34 -106 0 -17 -6 -18 -56 -13 -31 3 -57 7
-59 9 -2 2 -6 24 -10 49 -7 45 -6 46 27 56 42 14 50 14 64 5z m-166 -71 c7
-24 6 -31 -6 -31 -16 0 -29 43 -19 60 9 15 14 9 25 -29z m-2630 15 c0 -26 -12
-46 -27 -46 -10 0 -13 6 -9 16 3 9 6 22 6 30 0 8 7 14 15 14 8 0 15 -6 15 -14z
m2020 -21 c69 -9 492 -56 940 -105 448 -49 874 -96 945 -104 72 -9 200 -23
285 -32 85 -9 163 -20 172 -23 14 -5 -1974 -7 -2388 -2 l-131 1 -6 53 c-3 28
-14 79 -25 112 -20 59 -20 59 0 87 23 33 34 34 208 13z m-1274 -316 c8 -6 14
-23 14 -38 0 -24 27 -132 43 -171 4 -9 -4 -27 -18 -43 l-25 -28 -462 51 c-255
27 -517 57 -583 65 -66 8 -187 21 -270 30 -82 9 -168 18 -190 20 -55 6 -389
44 -445 50 -25 3 -171 19 -325 35 -154 17 -287 32 -295 34 -8 2 560 4 1264 5
941 1 1282 -2 1292 -10z m-1863 -120 c2 -2 9 -58 16 -124 51 -480 235 -909
556 -1295 124 -148 394 -386 531 -467 17 -10 64 -38 105 -62 263 -159 655
-284 956 -307 50 -4 96 -9 101 -13 5 -3 11 -28 13 -56 l4 -50 -50 3 c-163 10
-367 48 -550 104 -748 228 -1359 803 -1633 1538 -46 122 -102 319 -117 410
-19 109 -35 241 -35 286 l0 50 50 -6 c27 -3 51 -8 53 -11z m4933 -66 c-35
-454 -212 -915 -500 -1301 -415 -556 -1053 -920 -1749 -997 -72 -8 -133 -13
-135 -11 -2 3 0 28 5 58 8 52 9 53 43 55 471 34 942 215 1314 507 217 170 464
449 581 658 147 260 236 490 289 738 21 102 23 112 37 244 13 127 9 120 84
129 17 2 32 5 34 6 2 0 1 -38 -3 -86z m-4773 52 c62 -6 67 -8 67 -31 0 -15 6
-24 15 -24 9 0 15 9 15 23 l0 23 98 -12 c53 -6 171 -20 262 -29 91 -10 172
-19 180 -21 8 -1 20 -3 27 -3 17 -1 34 -97 27 -151 -5 -40 -3 -49 14 -62 11
-7 30 -43 42 -78 12 -36 39 -102 61 -148 26 -55 37 -90 33 -106 -6 -24 17 -56
40 -56 7 0 29 -24 48 -52 19 -29 63 -88 97 -130 l62 -77 -75 -94 c-42 -52 -76
-102 -76 -111 0 -32 39 -15 131 59 l93 74 41 -34 c22 -19 80 -63 128 -97 53
-38 90 -72 93 -86 6 -22 44 -39 62 -28 5 3 47 -12 93 -33 46 -21 113 -49 149
-62 36 -12 75 -33 87 -46 24 -25 48 -30 58 -12 7 10 22 9 114 -8 37 -6 38 -7
45 -95 4 -46 9 -96 11 -113 2 -16 11 -93 20 -170 8 -77 18 -155 21 -172 5 -33
4 -33 -36 -33 -29 0 -40 -4 -40 -15 0 -11 11 -15 40 -15 22 0 41 -3 41 -7 2
-10 4 -29 13 -117 l8 -68 -69 6 c-673 66 -1281 405 -1684 941 -253 337 -410
723 -463 1143 -20 155 -21 145 12 138 15 -2 57 -8 95 -11z m4637 2 c0 -6 -7
-61 -15 -121 -60 -455 -225 -850 -497 -1193 -142 -179 -353 -374 -546 -506
-316 -214 -711 -354 -1106 -392 l-69 -7 7 74 c11 114 13 118 52 118 24 0 34 5
34 15 0 11 -11 15 -36 15 -36 0 -36 0 -30 38 3 20 17 145 31 277 14 132 28
245 30 251 6 18 118 36 149 24 30 -11 60 -1 69 23 3 8 36 24 74 36 37 13 105
40 150 61 49 23 90 36 103 33 22 -6 60 21 60 42 0 6 33 34 73 62 39 28 97 72
127 96 l56 45 92 -74 c50 -41 98 -74 107 -74 37 0 23 33 -50 124 -85 105 -83
95 -24 161 15 17 53 66 84 109 31 44 66 85 78 91 15 7 24 23 28 50 3 22 20 70
37 107 17 37 42 100 57 139 14 40 35 79 45 86 20 14 28 67 12 77 -8 5 11 122
21 133 3 2 134 19 291 37 270 30 286 31 286 14 0 -10 7 -18 15 -18 8 0 15 9
15 19 0 16 10 21 58 26 31 3 64 7 72 8 45 7 60 6 60 -6z m-3796 -97 c2 -3 7
-25 11 -50 l7 -45 -43 -12 c-66 -17 -73 -11 -85 75 l-6 48 56 -6 c30 -3 57 -8
60 -10z m2936 -49 c-7 -33 -18 -62 -25 -64 -6 -3 -31 0 -54 6 l-43 12 7 45 c4
25 9 47 12 50 5 5 106 17 112 13 2 -1 -2 -29 -9 -62z m-2826 23 c10 -25 7 -46
-6 -42 -18 6 -30 58 -13 58 7 0 16 -7 19 -16z m2561 -16 c-21 -100 -99 -284
-160 -378 -49 -75 -116 -160 -125 -160 -9 0 -401 482 -396 487 1 2 126 16 277
33 256 29 400 46 407 49 2 0 1 -14 -3 -31z m75 2 c0 -20 -5 -30 -15 -30 -15 0
-21 40 -8 53 14 15 23 6 23 -23z m-2220 -15 c172 -19 314 -35 316 -35 3 0 -86
-113 -196 -250 l-201 -250 -48 57 c-88 107 -166 256 -215 412 -14 45 -26 86
-26 92 0 14 34 12 370 -26z m1589 -275 c116 -146 226 -283 244 -304 17 -21 34
-43 36 -49 2 -5 -125 118 -283 275 -157 156 -286 288 -286 292 0 4 12 23 27
42 21 29 29 33 39 22 6 -7 107 -132 223 -278z m-1974 190 c9 -40 72 -196 91
-225 11 -17 12 -25 4 -30 -6 -4 -12 -5 -14 -4 -36 50 -121 264 -111 279 11 18
23 10 30 -20z m2578 24 c7 -7 -47 -165 -76 -219 -29 -55 -38 -66 -47 -60 -5 3
9 42 30 88 21 45 46 108 56 140 17 55 24 64 37 51z m-2669 -81 c10 -32 37 -99
61 -150 32 -67 40 -94 32 -101 -14 -11 -74 -42 -81 -42 -20 0 -140 289 -130
314 5 12 54 32 90 35 6 1 18 -25 28 -56z m2833 31 l22 -14 -26 -76 c-33 -98
-99 -234 -114 -234 -9 0 -68 31 -88 47 -2 1 10 29 27 60 16 32 45 100 63 151
l32 93 31 -6 c17 -4 41 -13 53 -21z m-1798 -12 l39 -28 -342 -273 -341 -273
300 301 c165 165 301 301 303 301 1 0 20 -13 41 -28z m635 -145 c-3 -23 -68
-598 -144 -1277 l-138 -1235 -1 1272 -1 1272 53 6 c28 4 79 17 112 29 l60 22
32 -24 c30 -22 32 -27 27 -65z m-624 -242 c12 -110 28 -252 35 -315 7 -63 11
-117 10 -119 -7 -7 -110 22 -185 51 -41 16 -112 49 -157 74 -98 53 -237 155
-226 165 5 4 116 93 248 198 222 177 240 190 247 169 3 -13 16 -113 28 -223z
m928 43 l239 -192 -36 -30 c-117 -95 -285 -185 -429 -230 -111 -35 -113 -34
-107 12 3 20 12 105 21 187 8 83 17 159 19 171 1 11 9 80 16 152 9 98 16 132
25 128 7 -3 120 -91 252 -198z m-1645 -66 c21 -24 34 -48 31 -54 -9 -14 -41
21 -109 116 -39 55 -52 82 -44 87 8 5 25 -13 49 -49 20 -32 53 -77 73 -100z
m2154 71 c-70 -102 -106 -142 -107 -120 0 10 15 37 33 60 18 23 49 65 68 94
21 32 38 48 43 42 6 -5 -8 -35 -37 -76z m203 -28 c0 -14 -94 -148 -150 -213
l-35 -41 -33 44 -33 44 64 83 c35 46 72 98 82 115 l18 30 43 -24 c24 -14 44
-31 44 -38z m-2514 -2 c21 -32 58 -82 82 -111 l43 -53 -33 -45 -33 -44 -43 47
c-57 64 -142 187 -142 207 0 13 60 54 81 56 3 0 23 -26 45 -57z m335 -220 c8
-9 49 -40 92 -70 42 -30 74 -59 71 -64 -7 -12 -32 3 -131 78 -40 30 -73 59
-73 64 0 15 27 10 41 -8z m1759 9 c0 -8 -168 -138 -186 -144 -5 -2 -11 0 -14
4 -6 9 169 145 188 147 6 1 12 -3 12 -7z m-1802 -105 c37 -30 88 -68 115 -86
l47 -32 -31 -45 -31 -45 -26 17 c-53 33 -148 104 -187 138 l-40 35 40 35 c22
20 41 35 43 36 2 0 33 -24 70 -53z m1926 9 l29 -24 -34 -32 c-57 -53 -210
-159 -222 -154 -11 4 -61 85 -55 88 25 12 126 84 168 119 58 49 59 49 114 3z
m-1484 -143 c46 -17 86 -36 88 -43 8 -24 -119 18 -233 77 -61 32 -58 30 -51
41 3 6 29 -2 58 -17 29 -15 91 -41 138 -58z m1074 39 c-56 -28 -179 -78 -216
-87 -21 -5 -28 -3 -28 7 0 9 19 19 48 26 26 7 88 32 137 56 60 28 92 39 97 32
4 -7 -11 -20 -38 -34z m-1139 -124 c33 -14 75 -29 93 -32 17 -4 32 -13 32 -19
0 -28 -22 -88 -34 -93 -26 -10 -294 99 -311 126 -3 6 6 30 20 54 l26 45 57
-28 c31 -16 84 -40 117 -53z m1248 38 c13 -24 21 -49 18 -55 -9 -13 -179 -93
-250 -116 -63 -21 -76 -13 -86 50 l-7 40 69 23 c37 12 104 39 148 61 44 22 81
40 82 40 1 1 12 -19 26 -43z m-989 -17 c15 -14 2 -20 -32 -13 -19 4 -32 13
-32 21 0 11 7 13 28 8 15 -3 31 -11 36 -16z m596 6 c0 -8 -6 -15 -12 -15 -7 0
-23 -3 -35 -6 -14 -4 -23 -2 -23 5 0 12 33 29 58 30 6 1 12 -6 12 -14z m-594
-109 c7 -6 15 -35 18 -64 l7 -53 -28 7 c-74 16 -103 25 -107 33 -3 5 -1 24 5
42 6 19 13 40 15 47 4 15 72 7 90 -12z m623 -7 c18 -51 14 -78 -11 -84 -13 -3
-42 -9 -66 -14 l-43 -9 7 56 c3 32 9 60 13 64 5 6 23 9 78 17 6 0 16 -13 22
-30z"/>
<path d="M3250 5685 c0 -10 10 -15 30 -15 20 0 30 5 30 15 0 10 -10 15 -30 15
-20 0 -30 -5 -30 -15z"/>
<path d="M3130 5665 c0 -8 9 -15 20 -15 11 0 20 7 20 15 0 8 -9 15 -20 15 -11
0 -20 -7 -20 -15z"/>
<path d="M3070 5654 c0 -9 7 -14 17 -12 25 5 28 28 4 28 -12 0 -21 -6 -21 -16z"/>
<path d="M3003 5653 c-13 -2 -23 -11 -23 -20 0 -12 7 -14 31 -9 17 3 35 6 40
6 5 0 9 7 9 15 0 15 -13 17 -57 8z"/>
<path d="M2923 5633 c-24 -5 -33 -33 -10 -33 29 0 57 13 57 26 0 14 -6 15 -47
7z"/>
<path d="M2783 5588 c-31 -10 -47 -38 -21 -38 26 0 78 25 78 37 0 15 -12 15
-57 1z"/>
<path d="M2663 5543 c-14 -5 -18 -33 -5 -33 24 1 52 14 52 26 0 14 -23 17 -47
7z"/>
<path d="M2553 5493 c-15 -5 -18 -33 -4 -33 21 0 41 13 41 26 0 14 -14 17 -37
7z"/>
<path d="M2473 5453 c-15 -5 -18 -33 -4 -33 21 0 41 13 41 26 0 14 -14 17 -37
7z"/>
<path d="M2410 5411 c0 -5 -11 -12 -25 -15 -14 -4 -25 -11 -25 -16 0 -6 -7
-10 -15 -10 -8 0 -15 -4 -15 -10 0 -5 -7 -10 -15 -10 -8 0 -15 -4 -15 -10 0
-5 -7 -10 -15 -10 -8 0 -24 -9 -35 -20 -11 -11 -24 -20 -30 -20 -5 0 -13 -6
-17 -12 -4 -7 -17 -18 -28 -24 -11 -6 -21 -19 -23 -28 -5 -23 25 -20 40 4 7
11 19 20 26 20 7 0 15 7 18 15 4 8 12 15 18 15 7 0 22 9 34 20 12 11 26 20 32
20 5 0 10 5 10 10 0 6 7 10 15 10 8 0 15 4 15 9 0 5 11 12 25 15 14 4 25 11
25 16 0 6 7 10 15 10 8 0 15 7 15 15 0 8 -7 15 -15 15 -8 0 -15 -4 -15 -9z"/>
<path d="M2027 5131 c-15 -16 -27 -34 -27 -40 0 -6 -6 -11 -13 -11 -15 0 -117
-104 -117 -119 0 -24 28 -8 78 43 29 29 52 58 52 65 0 6 4 11 8 11 15 0 72 53
72 66 0 23 -23 16 -53 -15z"/>
<path d="M1830 4915 c0 -8 7 -15 15 -15 8 0 15 7 15 15 0 8 -7 15 -15 15 -8 0
-15 -7 -15 -15z"/>
<path d="M1783 4865 c-3 -9 -3 -18 0 -22 10 -10 37 6 37 22 0 20 -29 20 -37 0z"/>
<path d="M1743 4813 c-4 -10 -15 -27 -25 -37 -10 -11 -18 -26 -18 -33 0 -7 -4
-13 -8 -13 -5 0 -17 -17 -28 -37 -10 -21 -25 -44 -32 -51 -16 -17 -62 -108
-62 -122 0 -30 29 -2 60 57 19 38 43 77 52 87 10 11 21 28 24 39 3 10 15 28
25 38 10 10 19 25 19 33 0 8 7 16 15 20 20 7 19 36 0 36 -9 0 -19 -8 -22 -17z"/>
<path d="M1525 4439 c-4 -11 -4 -23 -1 -26 8 -9 36 17 36 33 0 22 -28 16 -35
-7z"/>
<path d="M1486 4354 c-9 -24 -7 -34 8 -34 13 0 26 20 26 41 0 15 -27 10 -34
-7z"/>
<path d="M1442 4231 c-15 -48 -15 -51 1 -51 8 0 19 17 25 39 15 48 15 51 -1
51 -8 0 -19 -17 -25 -39z"/>
<path d="M1401 4106 c-14 -58 -14 -66 3 -66 7 0 16 13 19 29 3 16 9 40 13 55
4 19 2 26 -9 26 -9 0 -19 -17 -26 -44z"/>
<path d="M1361 3933 c-14 -72 -14 -96 1 -91 7 3 18 31 25 64 16 76 16 84 -1
84 -8 0 -17 -21 -25 -57z"/>
<path d="M1340 3800 c0 -11 7 -20 15 -20 8 0 15 9 15 20 0 11 -7 20 -15 20 -8
0 -15 -9 -15 -20z"/>
<path d="M3730 5685 c0 -9 9 -15 25 -15 16 0 25 6 25 15 0 9 -9 15 -25 15 -16
0 -25 -6 -25 -15z"/>
<path d="M3870 5665 c0 -9 9 -15 25 -15 16 0 25 6 25 15 0 9 -9 15 -25 15 -16
0 -25 -6 -25 -15z"/>
<path d="M3932 5658 c7 -19 38 -22 38 -4 0 10 -9 16 -21 16 -12 0 -19 -5 -17
-12z"/>
<path d="M4030 5637 c0 -8 25 -21 60 -30 72 -21 80 -21 80 -3 0 8 -24 20 -65
30 -77 19 -75 19 -75 3z"/>
<path d="M4200 5586 c0 -8 21 -21 47 -30 57 -20 63 -20 63 -2 0 8 -21 21 -47
30 -57 20 -63 20 -63 2z"/>
<path d="M4330 5537 c0 -7 15 -18 33 -25 42 -15 47 -15 47 2 0 8 -14 19 -31
25 -41 14 -49 14 -49 -2z"/>
<path d="M4510 5455 c0 -14 29 -35 49 -35 18 0 12 29 -8 40 -27 14 -41 13 -41
-5z"/>
<path d="M4580 5415 c0 -8 7 -15 15 -15 8 0 15 -4 15 -10 0 -5 7 -10 15 -10 8
0 15 7 15 15 0 8 -7 15 -15 15 -8 0 -15 5 -15 10 0 6 -7 10 -15 10 -8 0 -15
-7 -15 -15z"/>
<path d="M4680 5355 c0 -8 7 -15 15 -15 8 0 15 7 15 15 0 8 -7 15 -15 15 -8 0
-15 -7 -15 -15z"/>
<path d="M4742 5314 c2 -8 17 -23 33 -32 17 -9 34 -23 38 -29 4 -7 14 -13 21
-13 8 0 16 -7 20 -15 3 -8 12 -15 21 -15 22 0 18 31 -5 37 -11 3 -20 9 -20 14
0 6 -7 12 -16 16 -9 3 -28 17 -42 29 -29 27 -55 31 -50 8z"/>
<path d="M4902 5194 c4 -20 34 -41 45 -31 10 11 -11 41 -31 45 -12 3 -17 -2
-14 -14z"/>
<path d="M4970 5137 c0 -16 151 -167 168 -167 27 0 8 29 -66 103 -74 74 -102
91 -102 64z"/>
<path d="M5160 4938 c0 -7 14 -28 30 -45 50 -56 70 -36 24 24 -25 33 -54 44
-54 21z"/>
<path d="M5250 4825 c0 -8 7 -15 15 -15 8 0 15 7 15 15 0 8 -7 15 -15 15 -8 0
-15 -7 -15 -15z"/>
<path d="M5310 4747 c0 -11 25 -54 39 -67 3 -3 15 -22 25 -42 18 -37 46 -51
46 -25 0 11 -25 54 -39 67 -3 3 -15 22 -25 43 -18 36 -46 50 -46 24z"/>
<path d="M5420 4565 c0 -8 7 -15 15 -15 8 0 15 7 15 15 0 8 -7 15 -15 15 -8 0
-15 -7 -15 -15z"/>
<path d="M5440 4536 c0 -1 5 -17 11 -35 10 -28 39 -44 39 -21 0 20 -24 60 -37
60 -7 0 -13 -2 -13 -4z"/>
<path d="M5480 4450 c0 -19 40 -90 50 -90 14 0 12 13 -6 60 -15 36 -44 56 -44
30z"/>
<path d="M5532 4328 c22 -86 75 -218 86 -218 17 0 13 22 -30 143 -19 55 -36
87 -45 87 -8 0 -13 -6 -11 -12z"/>
<path d="M5615 4068 c11 -51 23 -78 35 -78 13 0 13 11 -1 66 -7 27 -17 44 -26
44 -11 0 -13 -7 -8 -32z"/>
<path d="M5640 3960 c0 -11 7 -20 15 -20 8 0 15 9 15 20 0 11 -7 20 -15 20 -8
0 -15 -9 -15 -20z"/>
<path d="M5660 3850 c0 -11 7 -20 15 -20 8 0 15 9 15 20 0 11 -7 20 -15 20 -8
0 -15 -9 -15 -20z"/>
<path d="M5670 3785 c0 -24 5 -35 15 -35 10 0 15 11 15 35 0 24 -5 35 -15 35
-10 0 -15 -11 -15 -35z"/>
<path d="M3422 3915 c-146 -32 -259 -142 -298 -290 -28 -102 -12 -231 39 -318
36 -60 118 -134 185 -165 51 -24 68 -27 172 -27 110 0 118 2 182 33 151 74
239 232 225 402 -8 99 -39 168 -106 242 -69 75 -138 113 -231 128 -80 12 -89
12 -168 -5z m174 -280 c109 -71 71 -231 -63 -260 -41 -8 -107 25 -133 68 -76
123 75 271 196 192z"/>
<path d="M1340 3240 c0 -11 7 -20 15 -20 8 0 15 9 15 20 0 11 -7 20 -15 20 -8
0 -15 -9 -15 -20z"/>
<path d="M1350 3170 c0 -20 5 -30 15 -30 10 0 15 10 15 30 0 20 -5 30 -15 30
-10 0 -15 -10 -15 -30z"/>
<path d="M1360 3110 c0 -11 7 -20 15 -20 8 0 15 9 15 20 0 11 -7 20 -15 20 -8
0 -15 -9 -15 -20z"/>
<path d="M1370 3065 c0 -8 7 -15 15 -15 8 0 15 7 15 15 0 8 -7 15 -15 15 -8 0
-15 -7 -15 -15z"/>
<path d="M1385 2998 c14 -71 29 -108 42 -108 16 0 16 -2 -3 75 -11 43 -21 65
-31 65 -11 0 -13 -8 -8 -32z"/>
<path d="M1430 2844 c0 -4 5 -24 12 -45 11 -37 38 -55 38 -25 0 28 -23 76 -36
76 -8 0 -14 -3 -14 -6z"/>
<path d="M1470 2731 c0 -24 24 -71 36 -71 17 0 17 5 2 47 -11 29 -38 47 -38
24z"/>
<path d="M1510 2640 c0 -24 34 -90 46 -90 18 0 18 6 -3 57 -16 38 -43 59 -43
33z"/>
<path d="M1560 2530 c0 -20 24 -60 37 -60 16 0 17 11 1 45 -11 24 -38 35 -38
15z"/>
<path d="M1610 2435 c0 -8 7 -15 15 -15 8 0 15 7 15 15 0 8 -7 15 -15 15 -8 0
-15 -7 -15 -15z"/>
<path d="M1650 2368 c1 -18 25 -48 39 -48 15 0 14 21 -3 43 -15 20 -36 23 -36
5z"/>
<path d="M1710 2275 c0 -8 3 -15 8 -15 4 0 13 -13 20 -30 14 -31 42 -41 42
-15 0 8 -9 24 -20 35 -11 11 -20 25 -20 30 0 6 -7 10 -15 10 -8 0 -15 -7 -15
-15z"/>
<path d="M1792 2164 c2 -11 11 -20 22 -22 13 -3 17 1 14 14 -2 11 -11 20 -22
22 -13 3 -17 -1 -14 -14z"/>
<path d="M1830 2118 c0 -7 17 -31 39 -53 160 -166 181 -184 181 -152 0 15
-112 127 -128 127 -7 0 -12 5 -12 11 0 6 -12 26 -26 45 -26 34 -54 45 -54 22z"/>
<path d="M2082 1864 c2 -11 11 -20 22 -22 13 -3 17 1 14 14 -2 11 -11 20 -22
22 -13 3 -17 -1 -14 -14z"/>
<path d="M2142 1814 c2 -11 11 -20 22 -22 13 -3 17 1 14 14 -2 11 -11 20 -22
22 -13 3 -17 -1 -14 -14z"/>
<path d="M2190 1775 c0 -8 7 -15 15 -15 8 0 15 7 15 15 0 8 -7 15 -15 15 -8 0
-15 -7 -15 -15z"/>
<path d="M2230 1745 c0 -8 7 -15 15 -15 8 0 15 7 15 15 0 8 -7 15 -15 15 -8 0
-15 -7 -15 -15z"/>
<path d="M2290 1704 c0 -9 14 -21 30 -27 17 -6 30 -15 30 -19 0 -4 7 -8 15 -8
8 0 15 -4 15 -10 0 -5 7 -10 15 -10 8 0 15 7 15 15 0 8 -7 15 -15 15 -8 0 -15
5 -15 10 0 6 -5 10 -10 10 -6 0 -20 9 -32 20 -26 24 -48 26 -48 4z"/>
<path d="M2450 1605 c0 -8 7 -15 15 -15 8 0 15 7 15 15 0 8 -7 15 -15 15 -8 0
-15 -7 -15 -15z"/>
<path d="M2510 1576 c0 -13 20 -26 41 -26 15 0 10 27 -7 34 -24 9 -34 7 -34
-8z"/>
<path d="M2590 1536 c0 -12 47 -36 71 -36 23 0 5 27 -24 38 -42 15 -47 15 -47
-2z"/>
<path d="M2680 1497 c0 -7 22 -20 49 -30 58 -20 61 -21 61 -4 0 7 -22 20 -49
30 -58 20 -61 21 -61 4z"/>
<path d="M2810 1446 c0 -11 40 -26 71 -26 24 0 5 28 -22 34 -44 9 -49 8 -49
-8z"/>
<path d="M2960 1407 c0 -8 10 -17 23 -21 35 -9 47 -7 47 9 0 8 -6 15 -12 15
-7 0 -23 3 -35 6 -17 5 -23 2 -23 -9z"/>
<path d="M3040 1385 c0 -8 9 -15 20 -15 11 0 20 7 20 15 0 8 -9 15 -20 15 -11
0 -20 -7 -20 -15z"/>
<path d="M3090 1375 c0 -8 7 -15 15 -15 8 0 15 7 15 15 0 8 -7 15 -15 15 -8 0
-15 -7 -15 -15z"/>
<path d="M3130 1365 c0 -9 9 -15 25 -15 16 0 25 6 25 15 0 9 -9 15 -25 15 -16
0 -25 -6 -25 -15z"/>
<path d="M3190 1355 c0 -10 11 -15 35 -15 24 0 35 5 35 15 0 10 -11 15 -35 15
-24 0 -35 -5 -35 -15z"/>
<path d="M5670 3250 c0 -20 5 -30 15 -30 10 0 15 10 15 30 0 20 -5 30 -15 30
-10 0 -15 -10 -15 -30z"/>
<path d="M5640 3070 c0 -11 7 -20 15 -20 8 0 15 9 15 20 0 11 -7 20 -15 20 -8
0 -15 -9 -15 -20z"/>
<path d="M5626 3009 c-9 -44 -8 -49 8 -49 11 0 26 40 26 71 0 24 -28 5 -34
-22z"/>
<path d="M5592 2881 c-15 -50 -15 -61 2 -61 7 0 16 12 20 28 3 15 8 37 12 50
4 15 2 22 -8 22 -9 0 -20 -17 -26 -39z"/>
<path d="M5546 2748 c-9 -34 -8 -38 9 -38 8 0 15 3 15 8 0 4 3 17 6 30 5 16 2
22 -9 22 -8 0 -17 -10 -21 -22z"/>
<path d="M5503 2643 c-17 -35 -16 -53 0 -53 11 0 37 51 37 73 0 18 -26 4 -37
-20z"/>
<path d="M5450 2525 c0 -8 7 -15 15 -15 8 0 15 7 15 15 0 8 -7 15 -15 15 -8 0
-15 -7 -15 -15z"/>
<path d="M5409 2458 c-7 -18 -19 -39 -26 -46 -18 -18 -16 -42 2 -42 8 0 17 11
21 25 3 14 9 25 13 25 8 0 31 45 31 60 0 23 -29 7 -41 -22z"/>
<path d="M5303 2290 c-18 -27 -33 -52 -33 -54 0 -2 -16 -21 -35 -42 -37 -40
-45 -64 -21 -64 15 0 66 62 66 79 0 6 4 11 9 11 11 0 71 92 71 108 0 27 -27 9
-57 -38z"/>
<path d="M5157 2102 c-20 -22 -22 -42 -4 -42 16 0 47 32 47 48 0 18 -25 14
-43 -6z"/>
<path d="M5042 1975 c-41 -44 -52 -65 -32 -65 15 0 100 83 100 97 0 25 -26 13
-68 -32z"/>
<path d="M4933 1875 c-3 -9 -3 -18 0 -22 10 -10 37 6 37 22 0 20 -29 20 -37 0z"/>
<path d="M4873 1825 c-3 -9 -3 -18 0 -22 10 -10 37 6 37 22 0 20 -29 20 -37 0z"/>
<path d="M4762 1743 c-10 -10 -30 -24 -45 -32 -29 -15 -37 -41 -12 -41 8 0 23
8 33 18 10 9 30 23 45 31 29 15 37 41 12 41 -8 0 -23 -8 -33 -17z"/>
<path d="M4640 1655 c0 -8 7 -15 15 -15 8 0 15 7 15 15 0 8 -7 15 -15 15 -8 0
-15 -7 -15 -15z"/>
<path d="M4558 1616 c-20 -15 -24 -36 -7 -36 20 0 49 21 49 35 0 18 -19 19
-42 1z"/>
<path d="M4400 1525 c0 -8 7 -15 15 -15 8 0 15 7 15 15 0 8 -7 15 -15 15 -8 0
-15 -7 -15 -15z"/>
<path d="M4293 1493 c-24 -8 -43 -21 -43 -29 0 -18 5 -18 63 3 26 9 47 23 47
30 0 16 -14 15 -67 -4z"/>
<path d="M4178 1453 c-10 -2 -18 -11 -18 -20 0 -11 6 -14 23 -9 12 3 25 6 30
6 4 0 7 7 7 15 0 15 -9 17 -42 8z"/>
<path d="M4053 1417 c-25 -5 -43 -16 -43 -23 0 -17 8 -17 66 -3 25 7 44 17 44
25 0 16 -7 16 -67 1z"/>
<path d="M3960 1385 c0 -8 9 -15 20 -15 11 0 20 7 20 15 0 8 -9 15 -20 15 -11
0 -20 -7 -20 -15z"/>
<path d="M3920 1375 c0 -8 7 -15 15 -15 8 0 15 7 15 15 0 8 -7 15 -15 15 -8 0
-15 -7 -15 -15z"/>
<path d="M3860 1365 c0 -8 9 -15 20 -15 11 0 20 7 20 15 0 8 -9 15 -20 15 -11
0 -20 -7 -20 -15z"/>
<path d="M3780 1355 c0 -12 9 -15 35 -13 21 1 35 7 35 15 0 8 -13 13 -35 13
-25 0 -35 -4 -35 -15z"/>
</g>
</svg>
